HIERARCHY
ROOT Hips
{
	OFFSET 0.000000 0.000000 0.000000
	CHANNELS 6 Xposition Yposition Zposition Xrotation Yrotation Zrotation
	JOINT LeftUpLeg_virtual
	{
		OFFSET 0.000000 0.000000 0.000000
		CHANNELS 3 Xrotation Yrotation Zrotation
		JOINT LeftUpLeg
		{
			OFFSET 11.394100 -6.187798 -0.413800
			CHANNELS 3 Xrotation Yrotation Zrotation
			JOINT LeftLeg
			{
				OFFSET 0.430247 -32.302673 3.732800
				CHANNELS 3 Xrotation Yrotation Zrotation
				JOINT LeftFoot
				{
					OFFSET -0.430247 -48.264931 -6.423300
					CHANNELS 3 Xrotation Yrotation Zrotation
					JOINT LeftToeBase
					{
						OFFSET 4.230900 -16.068199 23.438400
						CHANNELS 3 Xrotation Yrotation Zrotation
						JOINT LeftToe_End
						{
							OFFSET 4.510700 0.695400 19.974600
							CHANNELS 3 Xrotation Yrotation Zrotation
							End Site
							{
								OFFSET 0 0 0
							}
						}
					}
				}
			}
		}
	}
	JOINT RightUpLeg_virtual
	{
		OFFSET 0.000000 0.000000 0.000000
		CHANNELS 3 Xrotation Yrotation Zrotation
		JOINT RightUpLeg
		{
			OFFSET -11.333700 -6.187798 -0.413800
			CHANNELS 3 Xrotation Yrotation Zrotation
			JOINT RightLeg
			{
				OFFSET -0.430392 -32.302628 3.733000
				CHANNELS 3 Xrotation Yrotation Zrotation
				JOINT RightFoot
				{
					OFFSET 0.430392 -48.264973 -6.423500
					CHANNELS 3 Xrotation Yrotation Zrotation
					JOINT RightToeBase
					{
						OFFSET -4.230900 -16.068199 23.438400
						CHANNELS 3 Xrotation Yrotation Zrotation
						JOINT RightToe_End
						{
							OFFSET -4.510700 0.695400 19.974600
							CHANNELS 3 Xrotation Yrotation Zrotation
							End Site
							{
								OFFSET 0 0 0
							}
						}
					}
				}
			}
		}
	}
	JOINT Spine_virtual
	{
		OFFSET 0.000000 0.000000 0.000000
		CHANNELS 3 Xrotation Yrotation Zrotation
		JOINT Spine
		{
			OFFSET -0.002400 12.777504 0.315300
			CHANNELS 3 Xrotation Yrotation Zrotation
			JOINT Spine1
			{
				OFFSET -0.002067 5.816869 0.032633
				CHANNELS 3 Xrotation Yrotation Zrotation
				JOINT Spine1_split
				{
					OFFSET -0.002067 5.816869 0.032633
					CHANNELS 3 Xrotation Yrotation Zrotation
					JOINT Spine2
					{
						OFFSET -0.002067 5.816869 0.032633
						CHANNELS 3 Xrotation Yrotation Zrotation
						JOINT Neck_virtual
						{
							OFFSET 0.000000 0.000000 0.000000
							CHANNELS 3 Xrotation Yrotation Zrotation
							JOINT Neck
							{
								OFFSET -0.003700 21.199493 -0.826900
								CHANNELS 3 Xrotation Yrotation Zrotation
								JOINT Head
								{
									OFFSET 0.000000 20.442200 4.834800
									CHANNELS 3 Xrotation Yrotation Zrotation
									JOINT HeadTop_End
									{
										OFFSET 0.000000 34.668396 4.968400
										CHANNELS 3 Xrotation Yrotation Zrotation
										End Site
										{
											OFFSET 0 0 0
										}
									}
								}
							}
						}
						JOINT LeftShoulder_virtual
						{
							OFFSET 0.000000 0.000000 0.000000
							CHANNELS 3 Xrotation Yrotation Zrotation
							JOINT LeftShoulder
							{
								OFFSET 3.288150 8.794197 -1.372250
								CHANNELS 3 Xrotation Yrotation Zrotation
								JOINT LeftShoulder_split
								{
									OFFSET 3.288150 8.794197 -1.372250
									CHANNELS 3 Xrotation Yrotation Zrotation
									JOINT LeftArm
									{
										OFFSET 11.953299 -2.279007 -0.146200
										CHANNELS 3 Xrotation Yrotation Zrotation
										JOINT LeftForeArm
										{
											OFFSET 18.448900 0.000000 0.000000
											CHANNELS 3 Xrotation Yrotation Zrotation
											JOINT LeftHand
											{
												OFFSET 29.527798 0.000000 0.000000
												CHANNELS 3 Xrotation Yrotation Zrotation
												End Site
												{
													OFFSET 0 0 0
												}
											}
										}
									}
								}
							}
						}
						JOINT RightShoulder_virtual
						{
							OFFSET 0.000000 0.000000 0.000000
							CHANNELS 3 Xrotation Yrotation Zrotation
							JOINT RightShoulder
							{
								OFFSET -3.249400 8.794197 -1.372250
								CHANNELS 3 Xrotation Yrotation Zrotation
								JOINT RightShoulder_split
								{
									OFFSET -3.249400 8.794197 -1.372250
									CHANNELS 3 Xrotation Yrotation Zrotation
									JOINT RightArm
									{
										OFFSET -11.953299 -2.279007 -0.146200
										CHANNELS 3 Xrotation Yrotation Zrotation
										JOINT RightForeArm
										{
											OFFSET -18.448900 0.000000 0.000000
											CHANNELS 3 Xrotation Yrotation Zrotation
											JOINT RightHand
											{
												OFFSET -29.527802 0.000000 0.000000
												CHANNELS 3 Xrotation Yrotation Zrotation
												End Site
												{
													OFFSET 0 0 0
												}
											}
										}
									}
								}
							}
						}
					}
				}
			}
		}
	}
}
MOTION
Frames: 6
Frame Time: 0.03333333
-1.738969 86.793831 3.602833 0.000000 0.000000 0.000000 9.709918 -46.732144 11.908320 -65.448006 25.708818 31.632686 48.513816 -15.676457 7.976000 10.420957 -3.270212 -14.362874 -0.829981 -3.053035 19.007341 0.000000 0.000000 0.000000 10.931385 -46.414755 13.234858 -33.176322 1.788331 -15.041144 41.572455 3.950525 -7.619454 -21.217733 6.796751 23.104138 11.837796 6.871054 0.779069 0.000000 0.000000 0.000000 8.841935 -54.114694 12.013777 11.125876 4.076306 -3.227138 4.974161 8.734683 -4.274849 0.002246 -1.935844 -0.391634 0.000000 0.000000 0.000000 -2.022873 7.744468 -2.281316 -1.135513 13.616204 0.800662 -1.703900 15.821010 -2.430647 0.000000 0.000000 0.000000 -4.640041 7.475499 -2.900519 0.837893 -15.461207 -0.843327 7.211281 -0.434496 0.839867 -10.091641 1.355323 -43.009124 -24.639346 -36.511589 -16.785492 0.000000 0.000000 0.000000 -4.855496 7.123191 -2.171519 -2.839653 16.374004 1.438217 -2.017000 -0.483070 -2.011310 11.010166 -29.444300 60.105774 -26.199849 45.882311 27.693516 0.000000 0.000000 0.000000 
-1.519659 85.941589 2.867031 0.000000 0.000000 0.000000 8.611415 -48.282426 11.783557 -64.532522 23.945853 31.794845 51.863757 -16.221260 8.763786 9.262247 -3.440648 -16.663903 -1.319213 -3.037119 19.378131 0.000000 0.000000 0.000000 9.979094 -46.510562 12.688057 -32.756631 1.789023 -15.748756 41.662494 2.975872 -7.119889 -20.415130 5.241039 20.393225 16.151512 7.085665 1.069593 0.000000 0.000000 0.000000 7.120882 -54.414720 11.170154 12.091839 3.750837 -3.577293 5.142929 8.744684 -4.249745 -0.551809 -2.223345 0.013794 0.000000 0.000000 0.000000 -2.126179 7.657167 -2.193471 -0.685187 13.322287 0.953922 -1.019731 16.581864 -3.258105 0.000000 0.000000 0.000000 -4.865348 7.479510 -2.845065 0.492160 -13.902212 -1.039180 7.574893 -1.351093 1.243789 -9.270765 1.813022 -42.259115 -24.494138 -36.814556 -16.759240 0.000000 0.000000 0.000000 -4.982667 7.117569 -2.074976 -2.798708 17.587244 0.766127 -0.843807 1.573269 -3.217315 10.401284 -29.277664 60.740012 -26.709836 46.450047 27.778055 0.000000 0.000000 0.000000 
-1.729859 84.728210 2.302444 0.000000 0.000000 0.000000 7.891761 -51.924215 11.573798 -63.616887 20.134862 32.245784 58.003940 -15.387612 9.742188 6.500942 -0.796367 -17.105124 -1.456023 -2.187103 17.449921 0.000000 0.000000 0.000000 8.433571 -48.416230 11.559784 -33.485378 2.952736 -17.063629 43.671376 3.197044 -6.780316 -19.373739 3.238487 20.480502 15.784721 7.331832 0.455844 0.000000 0.000000 0.000000 5.213553 -55.098374 9.517433 13.140300 3.279405 -3.750920 5.338326 8.688936 -4.275502 -0.879139 -3.087543 0.501634 0.000000 0.000000 0.000000 -2.013742 7.530188 -2.208854 -0.053995 12.571828 0.985703 -0.419492 17.361257 -4.484934 0.000000 0.000000 0.000000 -4.846858 7.442707 -2.831687 0.183528 -11.580952 -1.040243 8.003234 -2.643027 1.377283 -8.042723 2.590588 -41.009904 -24.454429 -37.118629 -17.155357 0.000000 0.000000 0.000000 -5.033437 7.032624 -2.052107 -2.879352 19.190936 0.185732 -0.012436 3.160788 -3.613746 9.305021 -27.602210 60.039303 -26.146980 46.748738 26.362160 0.000000 0.000000 0.000000 
-2.273632 83.423744 1.969135 0.000000 0.000000 0.000000 7.179044 -56.767666 10.758479 -62.362086 15.782043 32.480930 64.493214 -12.928350 9.910750 1.573988 3.911013 -14.214325 -1.368668 -0.842391 14.003809 0.000000 0.000000 0.000000 6.717597 -51.515800 9.903562 -34.835720 5.305394 -18.222089 46.699171 4.158658 -6.687111 -18.410886 1.224353 22.668775 11.053948 7.454729 -0.243768 0.000000 0.000000 0.000000 4.026476 -56.487983 7.595252 14.055241 2.832689 -3.633330 5.588031 8.618478 -4.307815 -0.303502 -3.583216 1.378788 0.000000 0.000000 0.000000 -1.709817 7.474358 -2.257097 0.491298 11.376961 0.897455 -0.182532 18.208729 -5.990028 0.000000 0.000000 0.000000 -4.557819 7.432464 -2.808265 -0.071487 -8.910380 -0.920821 8.306475 -3.993360 1.091882 -6.124869 3.706760 -39.376078 -24.470281 -37.413300 -17.849712 0.000000 0.000000 0.000000 -4.909295 6.972896 -2.055811 -2.978337 21.126313 -0.135874 0.191543 3.716543 -3.052505 7.403038 -24.996358 58.319475 -24.639540 46.167178 23.690911 0.000000 0.000000 0.000000 
-2.763610 82.330788 2.043015 0.000000 0.000000 0.000000 6.385237 -61.855040 8.990676 -60.679605 11.970839 31.890334 70.418601 -9.515972 8.742982 -5.457359 8.379060 -8.285792 -0.658335 0.627248 10.065610 0.000000 0.000000 0.000000 5.837708 -55.904890 8.147453 -35.950168 8.213405 -18.226334 49.027016 4.819202 -6.621363 -18.498727 -0.748967 24.428902 6.099198 7.354445 -0.632804 0.000000 0.000000 0.000000 3.748154 -59.281684 5.686248 14.624893 2.582678 -3.092424 5.891247 8.610002 -4.259710 0.733039 -4.011889 2.191465 0.000000 0.000000 0.000000 -1.258492 7.551175 -2.240728 0.861692 9.912885 0.576166 -0.370417 19.206509 -7.496705 0.000000 0.000000 0.000000 -4.009996 7.524058 -2.690729 -0.253763 -6.137753 -0.867732 8.602576 -4.696198 0.804447 -3.101413 5.116509 -37.859991 -24.320663 -37.895894 -18.595935 0.000000 0.000000 0.000000 -4.603636 7.041708 -2.022415 -3.023218 23.403691 -0.173082 0.279457 3.289089 -1.443723 4.401295 -21.759164 55.749343 -22.612403 44.215885 20.311726 0.000000 0.000000 0.000000 
-2.839835 81.496788 2.509899 0.000000 0.000000 0.000000 5.913406 -66.861876 6.676072 -60.144781 8.574970 30.080648 76.505167 -7.174850 7.031418 -9.980897 9.522943 -3.888059 -0.276105 2.046183 7.039273 0.000000 0.000000 0.000000 6.888643 -61.355965 7.217101 -36.871595 11.217983 -16.647263 49.540404 4.730701 -6.390485 -20.155422 -2.163947 24.078162 3.871267 6.845873 -0.562235 0.000000 0.000000 0.000000 4.838137 -63.735651 4.423562 14.659237 2.575158 -2.106763 6.259512 8.700280 -3.998050 0.922922 -4.123786 2.499395 0.000000 0.000000 0.000000 -0.687267 7.752883 -2.051704 1.115609 8.178039 -0.057646 -0.731499 20.028563 -8.665604 0.000000 0.000000 0.000000 -3.304439 7.704586 -2.380140 -0.359152 -3.406885 -0.957173 8.715092 -4.562409 0.587401 1.501298 6.253617 -37.200482 -23.804169 -39.112587 -19.152424 0.000000 0.000000 0.000000 -4.138083 7.195672 -1.864672 -3.001564 26.004837 0.147669 0.402127 2.048052 0.494270 0.413132 -17.804773 52.735552 -20.230134 40.265785 16.663443 0.000000 0.000000 0.000000 
